<svg xmlns="http://www.w3.org/2000/svg" width="346.333" height="193.594" viewBox="0 0 346.333 193.594">
  <g id="Grupo_5202" data-name="Grupo 5202" transform="translate(-47.553 -75.445)">
    <g id="Grupo_1" data-name="Grupo 1" transform="translate(47.553 75.445)">
      <rect id="Rect치ngulo_2" data-name="Rect치ngulo 2" width="204.553" height="50.868" transform="translate(141.78)" fill="#eb3c46"/>
      <rect id="Rect치ngulo_3" data-name="Rect치ngulo 3" width="141.78" height="50.868" fill="#0f69b4"/>
    </g>
    <g id="Grupo_2" data-name="Grupo 2" transform="translate(51.603 142.169)">
      <path id="Trazado_1" data-name="Trazado 1" d="M97.464,175.3c0,19.287-9.137,30.891-25.67,30.891a60.634,60.634,0,0,1-22.334-4.207L52.8,185.451a37.774,37.774,0,0,0,15.664,3.916c5.8,0,9.859-3.334,9.859-11.893V106.847H97.464Z" transform="translate(-49.459 -106.847)" fill="#fff"/>
      <path id="Trazado_2" data-name="Trazado 2" d="M155.212,167.758c0,20.449-11.022,38.434-36.838,38.434-25.67,0-36.836-17.4-36.836-38.434V106.847h19v59.606c0,14.358,5.656,23.641,17.838,23.641,12.039,0,17.549-9.283,17.549-23.641V106.847h19.289Z" transform="translate(-13.376 -106.847)" fill="#fff"/>
      <path id="Trazado_3" data-name="Trazado 3" d="M172.2,204.741,141.744,127.73h-.58l1.3,77.011H125.355V106.847h29.151l30.891,78.6h.58l-1.3-78.6h17.549v97.894Z" transform="translate(35.912 -106.847)" fill="#fff"/>
      <path id="Trazado_4" data-name="Trazado 4" d="M215.88,175.3c0,19.287-9.137,30.891-25.67,30.891a60.626,60.626,0,0,1-22.334-4.207l3.336-16.533a37.773,37.773,0,0,0,15.662,3.916c5.8,0,9.864-3.334,9.864-11.893V106.847H215.88Z" transform="translate(83.742 -106.847)" fill="#fff"/>
      <path id="Trazado_5" data-name="Trazado 5" d="M200.909,204.741V106.847h19v97.894Z" transform="translate(120.899 -106.847)" fill="#fff"/>
    </g>
    <g id="Grupo_3" data-name="Grupo 3" transform="translate(50.479 256.195)">
      <path id="Trazado_6" data-name="Trazado 6" d="M55.045,169.319c0,2.458-1.162,3.937-3.27,3.937a7.745,7.745,0,0,1-2.845-.535l.425-2.108a4.8,4.8,0,0,0,2,.5c.739,0,1.256-.425,1.256-1.515v-9h2.439Z" transform="translate(-48.93 -160.412)" fill="#fff"/>
      <path id="Trazado_7" data-name="Trazado 7" d="M62.406,168.359c0,2.605-1.407,4.9-4.7,4.9-3.27,0-4.692-2.218-4.692-4.9V160.6h2.42v7.6c0,1.829.72,3.011,2.271,3.011,1.534,0,2.237-1.181,2.237-3.011v-7.6h2.458Z" transform="translate(-44.332 -160.412)" fill="#fff"/>
      <path id="Trazado_8" data-name="Trazado 8" d="M64.569,173.072l-3.88-9.813h-.074l.166,9.813H58.6V160.6h3.712l3.937,10.017h.074L66.158,160.6H68.4v12.475Z" transform="translate(-38.051 -160.412)" fill="#fff"/>
      <path id="Trazado_9" data-name="Trazado 9" d="M69.449,162.65v10.422H66.935V162.65H63.924V160.6h8.631v2.053Z" transform="translate(-32.064 -160.412)" fill="#fff"/>
      <path id="Trazado_10" data-name="Trazado 10" d="M69.942,173.072H67.577L70.96,160.6h4.029l3.27,12.475H75.541l-.646-2.809H70.607Zm2.478-10.348-1.368,5.58h3.4l-1.275-5.58Z" transform="translate(-27.955 -160.412)" fill="#fff"/>
      <path id="Trazado_11" data-name="Trazado 11" d="M81.184,173.072,77.3,163.259h-.074l.168,9.813H75.213V160.6h3.716l3.935,10.017h.074L82.773,160.6h2.235v12.475Z" transform="translate(-19.366 -160.412)" fill="#fff"/>
      <path id="Trazado_12" data-name="Trazado 12" d="M82.884,173.072H80.519L83.9,160.6h4.029l3.27,12.475H88.483l-.646-2.809H83.549Zm2.475-10.348-1.366,5.58h3.4l-1.275-5.58Z" transform="translate(-13.397 -160.412)" fill="#fff"/>
      <path id="Trazado_13" data-name="Trazado 13" d="M91.263,173.355c-3.51,0-5.4-2.329-5.4-6.487,0-3.88,1.866-6.358,5.4-6.358a7.812,7.812,0,0,1,4.25,1.054l-.924,1.959a5.21,5.21,0,0,0-3.066-.869c-2.07,0-3.107,1.46-3.107,4.194,0,2.883,1.037,4.362,3.068,4.362a5.8,5.8,0,0,0,3.291-1.145l.776,1.959A7.38,7.38,0,0,1,91.263,173.355Z" transform="translate(-7.38 -160.51)" fill="#fff"/>
      <path id="Trazado_14" data-name="Trazado 14" d="M91.391,173.072V160.6h2.42v12.475Z" transform="translate(-1.168 -160.412)" fill="#fff"/>
      <path id="Trazado_15" data-name="Trazado 15" d="M98.921,173.355c-4.12,0-5.3-3.123-5.3-6.523,0-3.272,1.147-6.321,5.3-6.321,4.233,0,5.342,3.013,5.342,6.321C104.262,170.176,103.043,173.355,98.921,173.355Zm0-10.756c-2.18,0-2.754,1.978-2.754,4.214,0,2.478.555,4.509,2.754,4.509,2.144,0,2.773-2,2.773-4.509C101.694,164.539,101.1,162.6,98.921,162.6Z" transform="translate(1.336 -160.51)" fill="#fff"/>
      <path id="Trazado_16" data-name="Trazado 16" d="M105.563,173.072l-3.882-9.813h-.074l.168,9.813H99.592V160.6h3.714l3.937,10.017h.072L107.15,160.6h2.235v12.475Z" transform="translate(8.057 -160.412)" fill="#fff"/>
      <path id="Trazado_17" data-name="Trazado 17" d="M107.263,173.072H104.9l3.381-12.475h4.031l3.27,12.475h-2.718l-.646-2.809h-4.288Zm2.475-10.348-1.366,5.58h3.4l-1.275-5.58Z" transform="translate(14.025 -160.412)" fill="#fff"/>
      <path id="Trazado_18" data-name="Trazado 18" d="M110.647,173.072V160.6h2.42v10.441h5.248v2.034Z" transform="translate(20.492 -160.412)" fill="#fff"/>
      <path id="Trazado_19" data-name="Trazado 19" d="M121.266,173.257a15.635,15.635,0,0,1-4.435-.665V160.6h4.158c3.621,0,5.913,1.479,5.913,6.117C126.9,170.762,125.146,173.257,121.266,173.257Zm-.37-10.7h-1.645v8.408a8.286,8.286,0,0,0,2.144.259c1.625,0,2.937-.941,2.937-4.528C124.332,163.684,123.39,162.556,120.9,162.556Z" transform="translate(27.448 -160.412)" fill="#fff"/>
      <path id="Trazado_20" data-name="Trazado 20" d="M122.6,173.072V160.6h7.669v2.053h-5.248v3.066h4.01l-.185,2.144h-3.825v3.2h5.248v2.014Z" transform="translate(33.934 -160.412)" fill="#fff"/>
      <path id="Trazado_21" data-name="Trazado 21" d="M134.819,169.319c0,2.458-1.164,3.937-3.27,3.937a7.766,7.766,0,0,1-2.847-.535l.425-2.108a4.824,4.824,0,0,0,2,.5c.739,0,1.256-.425,1.256-1.515v-9h2.439Z" transform="translate(40.801 -160.412)" fill="#fff"/>
      <path id="Trazado_22" data-name="Trazado 22" d="M134.512,173.072h-2.365l3.381-12.475h4.029l3.272,12.475h-2.718l-.646-2.809h-4.288Zm2.475-10.348-1.366,5.58h3.4l-1.275-5.58Z" transform="translate(44.676 -160.412)" fill="#fff"/>
      <path id="Trazado_23" data-name="Trazado 23" d="M140.262,173.072h-2.4V160.6h4.01c2.456,0,4.454,1.147,4.454,3.753a3.855,3.855,0,0,1-2.365,3.585c.867,1.738,1.774,3.4,2.641,5.138h-2.845l-2.051-4.713c-.555.019-.924.019-1.443.019Zm1.22-10.59h-1.22v3.993h1.22c1.591,0,2.254-.72,2.254-2.144C143.736,162.945,142.942,162.482,141.482,162.482Z" transform="translate(51.104 -160.412)" fill="#fff"/>
      <path id="Trazado_24" data-name="Trazado 24" d="M147.193,173.257a15.623,15.623,0,0,1-4.435-.665V160.6h4.158c3.621,0,5.911,1.479,5.911,6.117C152.828,170.762,151.073,173.257,147.193,173.257Zm-.37-10.7h-1.645v8.408a8.272,8.272,0,0,0,2.144.259c1.626,0,2.937-.941,2.937-4.528C150.259,163.684,149.317,162.556,146.823,162.556Z" transform="translate(56.612 -160.412)" fill="#fff"/>
      <path id="Trazado_25" data-name="Trazado 25" d="M148.654,173.072V160.6h2.422v12.475Z" transform="translate(63.244 -160.412)" fill="#fff"/>
      <path id="Trazado_26" data-name="Trazado 26" d="M157.05,173.072l-3.882-9.813H153.1l.166,9.813h-2.18V160.6H154.8l3.937,10.017h.074l-.168-10.017h2.237v12.475Z" transform="translate(65.974 -160.412)" fill="#fff"/>
      <path id="Trazado_27" data-name="Trazado 27" d="M156.848,173.072V160.6h7.669v2.053h-5.248v3.066h4.01l-.185,2.144h-3.825v3.2h5.248v2.014Z" transform="translate(72.461 -160.412)" fill="#fff"/>
      <path id="Trazado_28" data-name="Trazado 28" d="M164.983,173.355a6.842,6.842,0,0,1-4.065-1.33l.924-1.9a5.35,5.35,0,0,0,3.177,1.2,1.727,1.727,0,0,0,1.923-1.645c0-2.643-5.765-1.33-5.765-5.729,0-1.885,1.477-3.438,4.4-3.438a7.892,7.892,0,0,1,3.714.85l-.814,1.942a6.094,6.094,0,0,0-2.939-.684c-1.126,0-1.866.37-1.866,1.294,0,2.235,5.8,1.366,5.8,5.616C169.473,171.506,167.828,173.355,164.983,173.355Z" transform="translate(77.039 -160.51)" fill="#fff"/>
      <path id="Trazado_29" data-name="Trazado 29" d="M167.919,173.072V160.6h2.422v12.475Z" transform="translate(84.914 -160.412)" fill="#fff"/>
      <path id="Trazado_30" data-name="Trazado 30" d="M176.315,173.072l-3.882-9.813h-.072l.166,9.813h-2.18V160.6h3.714L178,170.613h.072L177.9,160.6h2.235v12.475Z" transform="translate(87.644 -160.412)" fill="#fff"/>
      <path id="Trazado_31" data-name="Trazado 31" d="M178.532,162.65v3.419h4.012l-.185,2.142h-3.827v4.862h-2.42V160.6h7.671v2.053Z" transform="translate(94.13 -160.412)" fill="#fff"/>
      <path id="Trazado_32" data-name="Trazado 32" d="M181.782,173.072h-2.365L182.8,160.6h4.029l3.27,12.475h-2.715l-.648-2.809h-4.286Zm2.478-10.348-1.366,5.58h3.4l-1.275-5.58Z" transform="translate(97.848 -160.412)" fill="#fff"/>
      <path id="Trazado_33" data-name="Trazado 33" d="M191.111,173.072l-3.882-9.813h-.074l.168,9.813H185.14V160.6h3.714l3.937,10.017h.074L192.7,160.6h2.235v12.475Z" transform="translate(104.285 -160.412)" fill="#fff"/>
      <path id="Trazado_34" data-name="Trazado 34" d="M195.988,162.65v10.422h-2.514V162.65h-3.011V160.6h8.631v2.053Z" transform="translate(110.273 -160.412)" fill="#fff"/>
      <path id="Trazado_35" data-name="Trazado 35" d="M195.36,173.072V160.6h2.42v12.475Z" transform="translate(115.781 -160.412)" fill="#fff"/>
      <path id="Trazado_36" data-name="Trazado 36" d="M197.813,173.072V160.6h2.42v10.441h5.248v2.034Z" transform="translate(118.54 -160.412)" fill="#fff"/>
      <path id="Trazado_37" data-name="Trazado 37" d="M202.092,173.072V160.6h7.669v2.053h-5.248v3.066h4.012l-.187,2.144h-3.825v3.2h5.248v2.014Z" transform="translate(123.353 -160.412)" fill="#fff"/>
      <path id="Trazado_38" data-name="Trazado 38" d="M210.227,173.355a6.847,6.847,0,0,1-4.065-1.33l.924-1.9a5.356,5.356,0,0,0,3.179,1.2,1.727,1.727,0,0,0,1.921-1.645c0-2.643-5.767-1.33-5.767-5.729,0-1.885,1.481-3.438,4.4-3.438a7.887,7.887,0,0,1,3.714.85l-.814,1.942a6.094,6.094,0,0,0-2.939-.684c-1.126,0-1.866.37-1.866,1.294,0,2.235,5.8,1.366,5.8,5.616C214.719,171.506,213.074,173.355,210.227,173.355Z" transform="translate(127.932 -160.51)" fill="#fff"/>
    </g>
  </g>
</svg>
