<?xml version="1.0" encoding="utf-8"?>
<!-- Generator: Adobe Illustrator 26.4.1, SVG Export Plug-In . SVG Version: 6.00 Build 0)  -->
<svg version="1.1" id="Layer_1" xmlns="http://www.w3.org/2000/svg" xmlns:xlink="http://www.w3.org/1999/xlink" x="0px" y="0px"
	 viewBox="0 0 212.5 36.2" style="enable-background:new 0 0 212.5 36.2;" xml:space="preserve">
<style type="text/css">
	.st0{fill:#0F69B5;}
	.st1{fill:#EB3C46;}
	.st2{enable-background:new    ;}
	.st3{fill:#FFFFFF;}
</style>
<g id="Grupo_562" transform="translate(-117)">
	<g id="Grupo_561" transform="translate(117)">
		<g id="Grupo_554" transform="translate(0)">
			<g id="Grupo_553">
				<rect id="Rectángulo_737" x="0.8" y="2.5" class="st0" width="84.4" height="8.6"/>
				<rect id="Rectángulo_738" x="85.2" y="2.5" class="st1" width="126.6" height="8.6"/>
				<g class="st2">
					<path class="st3" d="M13.9,33.5l-0.4-12h-0.1c-0.2,0.9-0.7,2.4-0.9,3l-2.9,9H7.7l-2.7-9c-0.1-0.4-0.7-2.3-0.9-3H4.1l-0.4,12
						H2.2L2.7,20h2.7c0,0,3,9.8,3.4,12h0c0.5-2.1,3.6-12,3.6-12h2.5l0.5,13.5H13.9z"/>
					<path class="st3" d="M19.3,33.5v-8.6l-1.1-0.2v-1h2.6v9.8H19.3z M19.1,19.9h1.6v1.6h-1.6V19.9z"/>
					<path class="st3" d="M29.8,33.5v-5.9c0-1.9-0.6-2.9-2.2-2.9c-1,0-1.8,0.6-2.4,1.1v7.7h-1.5v-9.8h1l0.3,1.2
						c0.6-0.6,1.6-1.4,3.1-1.4c2.3,0,3.3,1.4,3.3,3.8v6.2H29.8z"/>
					<path class="st3" d="M34.7,33.5v-8.6l-1.1-0.2v-1h2.6v9.8H34.7z M34.6,19.9h1.6v1.6h-1.6V19.9z"/>
					<path class="st3" d="M40.2,26.1c0,2.1,4.9,1.4,4.9,4.7c0,1.6-1.2,2.9-3.4,2.9c-1.2,0-2.3-0.4-3-0.8l0.4-1.1
						c0.5,0.4,1.5,0.8,2.5,0.8c1.2,0,1.9-0.7,1.9-1.7c0-2.4-4.8-1.5-4.8-4.8c0-1.3,1-2.6,3.2-2.6c1,0,2.1,0.2,2.9,0.6l-0.4,1.1
						c-0.8-0.4-1.6-0.6-2.6-0.6C40.8,24.7,40.2,25.2,40.2,26.1z"/>
					<path class="st3" d="M50.7,33.7c-1.4,0-2.5-0.7-2.5-3v-5.9h-1.5v-1.1h1.5v-1.8l1.5-0.5v2.3h2.9v1.1h-2.9v6.1
						c0,1,0.4,1.5,1.3,1.5c0.5,0,1.2-0.3,1.6-0.4l0.3,1.1C52.5,33.4,51.5,33.7,50.7,33.7z"/>
					<path class="st3" d="M55.8,29.1c0,2.4,1.2,3.5,3.1,3.5c1.3,0,2.4-0.6,3-1l0.4,1.1c-0.8,0.5-2.1,1.1-3.6,1.1
						c-2.7,0-4.5-1.8-4.5-5.2c0-3.1,1.5-5,4.2-5c2.8,0,3.9,2.2,3.9,4.7v0.9H55.8z M58.4,24.7c-1.9,0-2.6,1.6-2.6,3.3h5.1
						C60.9,26.3,60.3,24.7,58.4,24.7z"/>
					<path class="st3" d="M69.8,25c-0.3-0.1-0.7-0.2-1.3-0.2c-0.9,0-1.7,0.5-2.2,1.1v7.6h-1.5v-9.8h1l0.3,1.2
						c0.4-0.6,1.3-1.4,2.5-1.4c0.7,0,1.2,0.1,1.2,0.2L69.8,25z"/>
					<path class="st3" d="M72.6,33.5v-8.6l-1.1-0.2v-1h2.6v9.8H72.6z M72.5,19.9h1.6v1.6h-1.6V19.9z"/>
					<path class="st3" d="M85,28.6c0,3.3-1.6,5.1-4.2,5.1c-2.7,0-4.2-1.8-4.2-5.1c0-2.9,1.4-5.1,4.2-5.1C83.5,23.5,85,25.7,85,28.6z
						 M83.4,28.6c0-2.6-0.9-3.9-2.7-3.9c-1.8,0-2.6,1.4-2.6,3.9c0,2.4,0.7,4,2.6,4C82.7,32.6,83.4,31.2,83.4,28.6z"/>
					<path class="st3" d="M98.5,32.3c-0.6,0.7-1.7,1.4-2.8,1.4c-2.3,0-3.9-1.7-3.9-5.1c0-3,1.5-5.1,4.1-5.1c1.2,0,2.1,0.4,2.6,0.8
						c-0.1-0.5-0.1-1-0.1-1.6v-3h1.5v13.8h-1.1L98.5,32.3z M98.4,25.4c-0.5-0.3-1.3-0.7-2.4-0.7c-1.8,0-2.7,1.4-2.7,3.9
						c0,2.4,0.8,4,2.6,4c0.9,0,1.7-0.4,2.5-1.2V25.4z"/>
					<path class="st3" d="M103.9,29.1c0,2.4,1.2,3.5,3.1,3.5c1.3,0,2.4-0.6,3-1l0.4,1.1c-0.8,0.5-2.1,1.1-3.6,1.1
						c-2.7,0-4.5-1.8-4.5-5.2c0-3.1,1.5-5,4.2-5c2.8,0,3.9,2.2,3.9,4.7v0.9H103.9z M106.5,24.7c-1.9,0-2.6,1.6-2.6,3.3h5.1
						C109,26.3,108.5,24.7,106.5,24.7z"/>
					<path class="st3" d="M117.6,33.5V20h7.5v1.3h-5.9V26h4.7l-0.2,1.4h-4.5v4.9h5.9v1.3H117.6z"/>
					<path class="st3" d="M133.1,32.3c-0.6,0.7-1.7,1.4-2.8,1.4c-2.3,0-3.9-1.7-3.9-5.1c0-3,1.5-5.1,4.1-5.1c1.2,0,2.1,0.4,2.6,0.8
						c-0.1-0.5-0.1-1-0.1-1.6v-3h1.5v13.8h-1.1L133.1,32.3z M133,25.4c-0.5-0.3-1.3-0.7-2.4-0.7c-1.8,0-2.7,1.4-2.7,3.9
						c0,2.4,0.8,4,2.6,4c0.9,0,1.7-0.4,2.5-1.2V25.4z"/>
					<path class="st3" d="M143.9,33.5l-0.2-1.1c-0.5,0.5-1.6,1.3-3,1.3c-2.2,0-3.4-1.3-3.4-4v-6h1.5v5.9c0,2,0.6,2.9,2.2,2.9
						c0.9,0,1.8-0.4,2.4-1v-7.8h1.5v9.8H143.9z"/>
					<path class="st3" d="M154.9,32.9c-0.6,0.3-1.8,0.9-3.3,0.9c-2.5,0-4.3-1.5-4.3-5.1c0-3.3,1.8-5.1,4.3-5.1
						c1.1,0,2.3,0.2,3.2,0.8l-0.4,1.1c-0.8-0.4-1.7-0.6-2.7-0.6c-1.8,0-2.8,1.4-2.8,3.9c0,2.8,1.1,3.9,2.8,3.9
						c1.1,0,2.1-0.4,2.8-0.8L154.9,32.9z"/>
					<path class="st3" d="M163.1,33.5l-0.3-1.3c-0.6,0.7-1.6,1.5-3,1.5c-2,0-3.2-1.3-3.2-3c0-1.7,1.2-2.8,3.5-2.8h2.5v-0.8
						c0-1.7-0.7-2.4-2.2-2.4c-1.2,0-2.2,0.3-3,0.6l-0.4-1.1c0.8-0.3,1.9-0.7,3.6-0.7c2.3,0,3.5,1.2,3.5,3.5v6.5H163.1z M162.7,29
						h-2.3c-1.7,0-2.2,0.7-2.2,1.7c0,1.2,0.6,2,2.1,2c1,0,1.9-0.6,2.5-1.2V29z"/>
					<path class="st3" d="M174.2,32.9c-0.6,0.3-1.8,0.9-3.3,0.9c-2.5,0-4.3-1.5-4.3-5.1c0-3.3,1.8-5.1,4.3-5.1
						c1.1,0,2.3,0.2,3.2,0.8l-0.4,1.1c-0.8-0.4-1.7-0.6-2.7-0.6c-1.8,0-2.8,1.4-2.8,3.9c0,2.8,1.1,3.9,2.8,3.9
						c1.1,0,2.1-0.4,2.8-0.8L174.2,32.9z"/>
					<path class="st3" d="M177.1,33.5v-8.6l-1.1-0.2v-1h2.6v9.8H177.1z M177,19.9h1.6v1.6H177V19.9z"/>
					<path class="st3" d="M189.5,28.6c0,3.3-1.6,5.1-4.2,5.1c-2.7,0-4.2-1.8-4.2-5.1c0-2.9,1.4-5.1,4.2-5.1
						C188,23.5,189.5,25.7,189.5,28.6z M188,28.6c0-2.6-0.9-3.9-2.7-3.9c-1.8,0-2.6,1.4-2.6,3.9c0,2.4,0.7,4,2.6,4
						C187.2,32.6,188,31.2,188,28.6z M183.2,22.2l-0.2-0.9l4.4-1.6l0.3,1.1L183.2,22.2z"/>
					<path class="st3" d="M198.2,33.5v-5.9c0-1.9-0.6-2.9-2.2-2.9c-1,0-1.8,0.6-2.4,1.1v7.7H192v-9.8h1l0.3,1.2
						c0.6-0.6,1.6-1.4,3.1-1.4c2.3,0,3.3,1.4,3.3,3.8v6.2H198.2z"/>
				</g>
			</g>
		</g>
	</g>
</g>
</svg>
